<?xml version="1.0" encoding="iso-8859-1"?>
<!-- Generator: Adobe Illustrator 29.8.2, SVG Export Plug-In . SVG Version: 9.03 Build 0)  -->
<svg version="1.1" id="&#xB808;&#xC774;&#xC5B4;_1" xmlns="http://www.w3.org/2000/svg" xmlns:xlink="http://www.w3.org/1999/xlink"
	 x="0px" y="0px" viewBox="0 0 1356 921" style="enable-background:new 0 0 1356 921;" xml:space="preserve">
<g>
	<path d="M669,921c0.312-4.961-3.362-7.2-3.045-12.469c0.451-7.525,7.26-14.208,7.969-20.127
		c1.531-12.789-3.648-25.143-2.955-36.944c0.329-5.609,4.458-24.363,7.195-28.797c1.049-1.699,14.291-14.197,16.342-15.659
		c13.634-9.717,14.593,8.95,24.982,7.039c3.229-0.594,3.634-5.625,3.545-8.496c-0.076-2.445-0.815-13.454-1.233-14.847
		c-0.588-1.962-3.402-2.606-3.82-5.256c-0.667-4.22,1.841-11.479,0.784-17.707c-2.073-12.206-13.362-14.165-16.295-22.706
		c-1.501-4.37-0.606-10.633-1.667-14.333c-0.513-1.79-3.212-3.004-4.222-4.778c-3.579-6.286-0.237-11.469-0.637-17.277
		c-0.759-11.019-8.797-31.655-15.511-40.575c-2.443-3.245-6.386-3.931-7.547-6.453c-1.418-3.083-0.479-6.717-1.118-9.882
		c-0.82-4.057-3.456-7.838-4.505-12.495c-1.786-7.923-2.496-16.923-4.188-23.994c-1.335-5.576-1.159-10.9-3.043-16.776
		c-5.808-18.109-31.02-47.458-47.985-56.015c-3.012-1.519-13.534-4.51-14.576-6.426c-2.272-4.177,6.052-1.959,7.525-4.543
		c1.179-5.985-25.061-6.263-28.968-8.012c-0.581-0.26-8.639-8.203-9.076-8.919c-3.518-5.763,2.128-4.703,5.98-7.124
		c14.118-8.876,3.578-15.796,4.002-25.914c0.107-2.55,3.395-11.649,4.025-15.065c1.888-10.245-16.11-20.91,5.029-22.449
		c-1.627,7.016,10.444,9.771,11.53,11.981c1.098,2.235,0.171,6.036,0.948,9.052c0.823,3.194,4.614,6.715,6.035,9.965
		c2.735,6.256,1.691,11.054,2.937,16.02c1.011,4.027,6.68,9.492,8.77,13.273c2.243,4.057,10.1,23.421,13.507,24.493
		c1.829,0.576,4.065-0.021,6.083,0.934c1.837,0.87,6.215,7.81,9.423,1.999c4.25-7.699,5.166-18.671,10.945-27.054
		c2.247-3.26,5.401-4.498,7.264-6.736c1.83-2.198,2.628-5.824,4.573-8.428c5.303-7.098,27.693-16.693,28.989-20.016
		c0.619-1.588-3.836-2.863-5.33-4.756c-2.847-3.607-3.493-10.006-6.078-12.814c-2.184-2.373-6.99-2.344-7.462-3.04
		c-0.687-1.012,0.436-7.704-1.097-10.169c-1-1.608-4.285-0.073-5.587-5.644c-0.999-4.274,1.459-11.732-3.433-12.066l-0.507,3.021
		c-2.896,0.549-4.81-1.785-7.092-2.034c-3.196-0.349-4.632,2.906-6.121-2.753c-2.293-8.714,2.635-12.024,3.717-20.202
		c-5.525-1.058-9.414-4.944-15.361-4.169c-3.07-5.04-4.407-12.198-6.775-18.013c-1.261-3.097-7.385-13.099-7.501-16.364
		c-0.041-1.151,1.791-2.395,1.476-4.744c-0.325-2.425-3.349-4.806-3.796-7.283c-0.449-2.487-1.348-15.654-0.985-17.901
		c0.594-3.674,5.155-6.493,4.942-10.141c-0.128-2.188-2.328-2.014-2.658-2.635c-0.957-1.8-1.508-6.589-1.352-8.774l-0.999,1.996
		c-3.657-2.864-2.329-12.888-0.383-16.893c2.436-5.013,4.845-4.198,7.6-6.186c6.865-4.956,11.482-7.896,17.382-13.283
		c6.912-6.311,18.243-17.027,26.693-20.857c3.909-1.772,10.293-2.275,14.078-4.922c1.979-1.383,2.438-3.424,3.709-4.291
		c0.77-0.524,15.967-5.241,17.473-5.527c10.309-1.954,34.383-0.161,45.917,0c3.86,0.054,18.301-0.93,19.995,0.952
		c0.168,0.186-0.216,2.82,2.376,3.956c1.083,0.475,3.951,1.574,4.945,1.944c1.345,0.501,7.947,1.805,8.235,2.117
		c0.24,0.259-0.734,2.272-0.67,3.314c0.276,4.467,2.137,1.679,3.161,1.821c0.506,0.07,1.383,4.39,4.004,4.849l0.982-2.987
		c3.941,4.553,8.982,11.265,15.51,8.998c-0.253,2.366-2.528,4.384,0.997,4.005l-0.003,0.974c-5.779,1.457-0.006,4.24,0.864,5.613
		c0.79,1.246,1.916,4.944,2.357,5.219c0.749,0.468,2.351-0.083,3.478,0.504c1.345,0.7,2.585,3.882,3.3,5.191
		c0.106,0.507-6.704,0.553-4.979,3.486c0.062,0.106,1.129-0.425,2.453-0.031c2.193,0.653,9.821,2.412,10.164,4.527
		c0.101,0.62-0.934,2.126-0.625,2.449c0.167,0.175,2.447,0.107,3.56,0.977c1.491,1.166,1.698,11.006,0.994,13.14
		c-1.198,3.63-5.303,3.373-5.596,4.604c-1.666,7.006,2.456,4.92,2.932,5.395c0.916,0.915-0.598,5.742-0.611,7.472
		c-0.022,2.905,0.844,7.347,0.555,9.76c-0.234,1.947-4.302,4.696-4.873,9.163c-0.735,5.747,1.8,7.289,2.082,10.121
		c0.255,2.563-1.283,1.542-0.314,7.174c1.296,7.533-2.387,8.266-2.512,9.734c-0.117,1.376,4.664,4.83,1.771,8.513l-2.977-1.997
		c-2.491,5.863,1.139,9.344,0.98,14.998l-2.983-0.996c0.146,0.974-0.262,3.714-0.003,3.993c1.768,1.902,2.944-1.81,3.985-1.99
		c1.563,4.391-1.667,8.479-2.036,11.571c-0.121,1.015,3.314,2.268,1.482,6.419c4.222,3.681,12.717,10.055,15.57,14.499
		c2.036,3.171,1.45,7.184,2.18,8.319c0.255,0.397,3.927,1.505,5.159,2.345c14.599,9.955,29.865,20.47,43.294,32.24
		c7.767,6.807,16.046,18.153,23.339,24.123c2.753,2.254,5.728,2.985,8.55,5.45c16.503,14.418,18.427,37.485,22.701,57.299
		c6.059,28.093,9.54,45.031,9.811,74.271c0.279,30.025,3.238,60.691,4.007,90.911c0.984,38.705,1.712,83.922-4.301,121.794
		c-2.327,14.657-5.407,29.518-7.864,44.136c-1.772,10.541-4.46,21.005-5.883,31.617H669z"/>
</g>
</svg>
